<svg width="791" height="437" viewBox="0 0 791 437" fill="none" xmlns="http://www.w3.org/2000/svg">
<path opacity="0.5" d="M689.814 208.219C689.996 210.4 690.118 212.591 690.179 214.791L689.344 214.815C689.374 215.907 689.39 217.001 689.39 218.098C689.39 219.195 689.374 220.289 689.344 221.381L690.179 221.404C690.118 223.605 689.996 225.796 689.814 227.977L688.981 227.908C688.799 230.087 688.557 232.257 688.256 234.416L689.084 234.532C688.78 236.708 688.416 238.874 687.994 241.029L687.174 240.868C686.754 243.009 686.276 245.138 685.741 247.255L686.551 247.46C686.013 249.587 685.418 251.702 684.766 253.804L683.968 253.557C683.324 255.635 682.624 257.7 681.869 259.753L682.654 260.042C681.898 262.098 681.088 264.142 680.224 266.171L679.455 265.844C678.603 267.847 677.699 269.836 676.744 271.811L677.496 272.175C676.545 274.141 675.543 276.093 674.492 278.03L673.757 277.632C672.72 279.543 671.635 281.441 670.501 283.324L671.217 283.755C670.089 285.629 668.914 287.489 667.694 289.333L666.997 288.872C665.8 290.68 664.559 292.474 663.274 294.253L663.951 294.742C662.671 296.515 661.347 298.272 659.982 300.015L659.324 299.499C657.983 301.21 656.602 302.905 655.18 304.586L655.818 305.125C654.41 306.789 652.963 308.438 651.477 310.071L650.859 309.509C649.392 311.121 647.888 312.719 646.347 314.3L646.945 314.884C645.426 316.444 643.87 317.988 642.28 319.517L641.701 318.915C640.133 320.422 638.531 321.914 636.896 323.39L637.456 324.01C635.832 325.476 634.176 326.927 632.487 328.361L631.946 327.725C630.293 329.129 628.608 330.518 626.894 331.892L627.417 332.544C625.707 333.914 623.967 335.268 622.198 336.607L621.694 335.94C619.963 337.249 618.204 338.544 616.418 339.822L616.904 340.502C615.126 341.774 613.321 343.031 611.489 344.272L611.02 343.58C609.218 344.802 607.389 346.008 605.535 347.198L605.986 347.901C604.15 349.081 602.288 350.244 600.403 351.392L599.968 350.679C598.103 351.814 596.214 352.934 594.302 354.039L594.719 354.763C592.832 355.852 590.923 356.927 588.991 357.986L588.589 357.254C586.67 358.306 584.729 359.342 582.767 360.363L583.152 361.104C581.221 362.109 579.269 363.099 577.297 364.073L576.927 363.324C574.965 364.293 572.982 365.247 570.98 366.185L571.334 366.942C569.362 367.866 567.371 368.776 565.361 369.669L565.021 368.906C563.022 369.795 561.004 370.669 558.968 371.527L559.293 372.297C557.283 373.144 555.257 373.976 553.213 374.793L552.903 374.017C550.871 374.828 548.822 375.625 546.757 376.406L547.052 377.188C545.012 377.96 542.955 378.716 540.883 379.458L540.601 378.671C538.541 379.408 536.464 380.13 534.373 380.837L534.64 381.628C532.573 382.327 530.49 383.01 528.394 383.678L528.14 382.882C526.053 383.547 523.953 384.197 521.838 384.831L522.078 385.631C519.988 386.258 517.884 386.87 515.767 387.467L515.54 386.663C513.431 387.257 511.309 387.837 509.173 388.401L509.387 389.209C507.277 389.766 505.155 390.308 503.021 390.835L502.821 390.024C500.691 390.55 498.55 391.06 496.397 391.556L496.584 392.37C494.459 392.859 492.322 393.333 490.174 393.792L489.999 392.975C487.855 393.433 485.7 393.875 483.535 394.303L483.696 395.123C481.555 395.546 479.402 395.953 477.239 396.346L477.09 395.524C474.935 395.915 472.77 396.292 470.595 396.653L470.732 397.477C468.575 397.835 466.408 398.178 464.232 398.506L464.107 397.68C461.944 398.006 459.771 398.317 457.589 398.613L457.701 399.441C455.531 399.735 453.352 400.014 451.165 400.278L451.064 399.448C448.894 399.71 446.716 399.957 444.529 400.189L444.617 401.02C442.436 401.251 440.246 401.467 438.049 401.668L437.973 400.836C435.799 401.034 433.617 401.218 431.427 401.387L431.492 402.22C429.301 402.389 427.102 402.543 424.896 402.681L424.844 401.847C422.668 401.984 420.484 402.105 418.294 402.212L418.335 403.047C416.141 403.153 413.94 403.245 411.733 403.322L411.704 402.486C409.523 402.562 407.334 402.623 405.14 402.668L405.158 403.504C402.965 403.549 400.766 403.58 398.561 403.595L398.556 402.759C397.455 402.767 396.353 402.771 395.25 402.771C394.147 402.771 393.045 402.767 391.944 402.759L391.939 403.595C389.734 403.58 387.535 403.549 385.342 403.504L385.36 402.668C383.166 402.623 380.977 402.562 378.796 402.486L378.767 403.322C376.56 403.245 374.359 403.153 372.165 403.047L372.206 402.212C370.016 402.105 367.832 401.984 365.656 401.847L365.604 402.681C363.398 402.543 361.199 402.389 359.008 402.22L359.073 401.387C356.883 401.218 354.701 401.034 352.527 400.836L352.451 401.668C350.254 401.467 348.064 401.251 345.883 401.02L345.971 400.189C343.784 399.957 341.606 399.71 339.436 399.448L339.335 400.278C337.148 400.014 334.969 399.735 332.799 399.441L332.911 398.613C330.729 398.317 328.556 398.006 326.393 397.68L326.268 398.506C324.092 398.178 321.925 397.835 319.768 397.477L319.905 396.653C317.73 396.292 315.565 395.915 313.41 395.524L313.261 396.346C311.098 395.953 308.946 395.546 306.804 395.123L306.965 394.303C304.8 393.875 302.645 393.433 300.501 392.975L300.326 393.792C298.178 393.333 296.042 392.859 293.916 392.37L294.103 391.556C291.95 391.06 289.809 390.55 287.679 390.024L287.479 390.835C285.345 390.308 283.223 389.766 281.113 389.209L281.327 388.401C279.191 387.837 277.069 387.257 274.96 386.663L274.733 387.467C272.616 386.87 270.512 386.258 268.422 385.631L268.662 384.831C266.547 384.197 264.447 383.547 262.36 382.882L262.107 383.678C260.01 383.01 257.928 382.327 255.86 381.628L256.127 380.837C254.036 380.13 251.96 379.408 249.899 378.671L249.617 379.458C247.545 378.716 245.488 377.96 243.448 377.188L243.743 376.406C241.678 375.625 239.629 374.828 237.597 374.017L237.287 374.793C235.243 373.976 233.217 373.144 231.208 372.297L231.532 371.527C229.496 370.669 227.478 369.795 225.479 368.906L225.139 369.669C223.129 368.776 221.138 367.866 219.166 366.942L219.521 366.185C217.518 365.247 215.535 364.293 213.573 363.324L213.203 364.073C211.231 363.099 209.279 362.109 207.348 361.104L207.733 360.363C205.771 359.342 203.83 358.306 201.911 357.254L201.51 357.986C199.578 356.927 197.668 355.852 195.781 354.763L196.199 354.039C194.286 352.934 192.397 351.814 190.532 350.679L190.098 351.392C188.212 350.244 186.351 349.08 184.514 347.901L184.965 347.198C183.111 346.008 181.282 344.802 179.48 343.58L179.011 344.272C177.179 343.031 175.374 341.774 173.596 340.502L174.082 339.822C172.296 338.544 170.537 337.249 168.806 335.94L168.302 336.607C166.533 335.268 164.793 333.914 163.084 332.544L163.606 331.892C161.892 330.518 160.208 329.129 158.555 327.725L158.013 328.361C156.325 326.927 154.668 325.476 153.044 324.01L153.604 323.39C151.969 321.913 150.367 320.422 148.8 318.915L148.22 319.517C146.63 317.988 145.075 316.444 143.555 314.884L144.153 314.3C142.612 312.719 141.108 311.121 139.641 309.509L139.023 310.071C137.537 308.438 136.09 306.789 134.683 305.125L135.32 304.586C133.898 302.905 132.517 301.21 131.176 299.499L130.518 300.015C129.153 298.272 127.829 296.515 126.549 294.742L127.226 294.253C125.941 292.474 124.7 290.68 123.503 288.872L122.806 289.333C121.586 287.489 120.411 285.629 119.283 283.755L119.999 283.324C118.865 281.441 117.78 279.543 116.743 277.632L116.008 278.03C114.957 276.092 113.955 274.141 113.004 272.175L113.757 271.811C112.801 269.836 111.897 267.846 111.045 265.844L110.276 266.171C109.412 264.142 108.602 262.098 107.846 260.042L108.631 259.753C107.876 257.7 107.176 255.635 106.532 253.556L105.734 253.804C105.082 251.702 104.487 249.587 103.949 247.46L104.759 247.255C104.224 245.138 103.746 243.008 103.326 240.868L102.506 241.029C102.084 238.874 101.72 236.708 101.416 234.531L102.244 234.416C101.943 232.257 101.701 230.087 101.519 227.907L100.686 227.977C100.504 225.796 100.382 223.605 100.321 221.404L101.156 221.381C101.126 220.289 101.111 219.195 101.111 218.098C101.111 217.001 101.126 215.907 101.156 214.814L100.321 214.791C100.382 212.591 100.504 210.4 100.686 208.219L101.519 208.288C101.701 206.108 101.943 203.939 102.244 201.78L101.417 201.664C101.72 199.487 102.084 197.321 102.506 195.167L103.326 195.327C103.746 193.187 104.224 191.058 104.759 188.941L103.949 188.736C104.487 186.609 105.082 184.494 105.734 182.392L106.532 182.639C107.176 180.561 107.876 178.495 108.631 176.442L107.846 176.154C108.602 174.097 109.412 172.054 110.276 170.024L111.045 170.351C111.897 168.349 112.801 166.36 113.757 164.385L113.004 164.021C113.955 162.055 114.957 160.103 116.008 158.166L116.743 158.564C117.78 156.652 118.865 154.755 119.999 152.871L119.283 152.44C120.411 150.566 121.586 148.707 122.806 146.863L123.503 147.324C124.7 145.516 125.941 143.722 127.226 141.943L126.549 141.454C127.829 139.681 129.153 137.923 130.519 136.181L131.176 136.696C132.517 134.986 133.899 133.29 135.32 131.61L134.683 131.07C136.09 129.407 137.537 127.758 139.023 126.125L139.641 126.687C141.108 125.074 142.612 123.477 144.153 121.895L143.555 121.312C145.075 119.752 146.63 118.207 148.22 116.678L148.8 117.281C150.367 115.774 151.969 114.282 153.604 112.806L153.044 112.186C154.668 110.72 156.325 109.269 158.014 107.834L158.555 108.471C160.208 107.067 161.892 105.677 163.606 104.304L163.084 103.652C164.793 102.282 166.533 100.927 168.302 99.5891L168.806 100.255C170.537 98.9462 172.296 97.6521 174.082 96.3735L173.596 95.694C175.374 94.4216 177.179 93.1647 179.011 91.9235L179.48 92.6153C181.282 91.3939 183.111 90.1879 184.965 88.9974L184.514 88.2942C186.351 87.1151 188.212 85.9514 190.098 84.8033L190.532 85.517C192.397 84.3815 194.286 83.2612 196.199 82.1567L195.781 81.4331C197.668 80.3431 199.578 79.2684 201.51 78.2093L201.911 78.942C203.83 77.89 205.771 76.8534 207.733 75.8325L207.348 75.0912C209.279 74.0865 211.231 73.0969 213.203 72.1229L213.573 72.8721C215.535 71.9027 217.518 70.9486 219.521 70.0102L219.166 69.2535C221.138 68.3292 223.129 67.42 225.139 66.5263L225.479 67.2898C227.478 66.4007 229.496 65.5268 231.532 64.6684L231.208 63.8984C233.217 63.0514 235.243 62.2196 237.287 61.403L237.597 62.179C239.629 61.3672 241.678 60.5705 243.743 59.7893L243.448 59.0077C245.488 58.236 247.545 57.4793 249.617 56.738L249.899 57.5247C251.96 56.7875 254.036 56.0655 256.127 55.3589L255.86 54.5673C257.928 53.8688 260.01 53.1854 262.107 52.5172L262.36 53.3134C264.447 52.6486 266.547 51.9989 268.662 51.3646L268.422 50.5642C270.512 49.9372 272.616 49.3252 274.733 48.7285L274.96 49.5328C277.069 48.9383 279.191 48.3589 281.327 47.795L281.113 46.9871C283.223 46.4299 285.345 45.8876 287.479 45.3606L287.679 46.1719C289.809 45.646 291.95 45.1353 294.103 44.64L293.916 43.8256C296.042 43.3367 298.178 42.8627 300.326 42.4038L300.501 43.221C302.645 42.763 304.8 42.3202 306.965 41.8927L306.804 41.0729C308.946 40.65 311.098 40.2421 313.261 39.8494L313.41 40.6715C315.565 40.2802 317.73 39.9039 319.905 39.5429L319.769 38.7185C321.926 38.3605 324.092 38.0175 326.268 37.6896L326.393 38.5159C328.556 38.1899 330.729 37.8789 332.911 37.5831L332.799 36.755C334.969 36.4608 337.148 36.1817 339.336 35.9177L339.436 36.7473C341.606 36.4855 343.784 36.2386 345.971 36.0069L345.883 35.1759C348.064 34.9448 350.254 34.7287 352.451 34.5278L352.527 35.36C354.701 35.1612 356.883 34.9774 359.073 34.8087L359.008 33.9756C361.2 33.8068 363.398 33.6531 365.604 33.5146L365.656 34.3486C367.832 34.212 370.016 34.0903 372.206 33.9837L372.165 33.1491C374.359 33.0423 376.56 32.9506 378.767 32.8741L378.796 33.7092C380.978 33.6336 383.166 33.573 385.36 33.5275L385.343 32.692C387.535 32.6465 389.734 32.6161 391.939 32.6008L391.945 33.4364C393.045 33.4288 394.147 33.425 395.25 33.425C396.353 33.425 397.455 33.4288 398.556 33.4364L398.561 32.6008C400.766 32.6161 402.965 32.6465 405.158 32.692L405.14 33.5275C407.335 33.573 409.523 33.6337 411.704 33.7092L411.733 32.8741C413.94 32.9506 416.141 33.0423 418.335 33.1491L418.294 33.9837C420.484 34.0903 422.668 34.212 424.844 34.3486L424.896 33.5146C427.102 33.6531 429.301 33.8068 431.492 33.9756L431.428 34.8088C433.617 34.9774 435.799 35.1612 437.973 35.36L438.049 34.5278C440.246 34.7287 442.436 34.9448 444.617 35.1759L444.529 36.0069C446.716 36.2386 448.895 36.4855 451.065 36.7473L451.165 35.9177C453.352 36.1817 455.531 36.4609 457.701 36.755L457.589 37.5831C459.771 37.8789 461.944 38.1899 464.108 38.5159L464.232 37.6896C466.408 38.0175 468.575 38.3605 470.732 38.7185L470.595 39.5429C472.77 39.9039 474.935 40.2802 477.09 40.6716L477.239 39.8494C479.402 40.2421 481.555 40.65 483.697 41.0729L483.535 41.8927C485.7 42.3202 487.855 42.7631 489.999 43.221L490.174 42.4038C492.322 42.8627 494.459 43.3367 496.584 43.8256L496.397 44.64C498.55 45.1353 500.692 45.646 502.821 46.1719L503.021 45.3606C505.155 45.8876 507.277 46.4299 509.387 46.9871L509.173 47.795C511.309 48.3589 513.431 48.9383 515.54 49.5328L515.767 48.7285C517.884 49.3252 519.988 49.9372 522.078 50.5642L521.838 51.3646C523.953 51.9989 526.054 52.6486 528.14 53.3134L528.394 52.5172C530.49 53.1854 532.573 53.8688 534.64 54.5673L534.373 55.3589C536.464 56.0655 538.541 56.7876 540.601 57.5248L540.883 56.738C542.955 57.4793 545.012 58.236 547.053 59.0078L546.757 59.7893C548.822 60.5705 550.871 61.3672 552.903 62.179L553.213 61.4031C555.257 62.2196 557.284 63.0515 559.293 63.8985L558.968 64.6684C561.004 65.5268 563.022 66.4007 565.021 67.2898L565.361 66.5263C567.371 67.4201 569.362 68.3292 571.334 69.2535L570.98 70.0102C572.982 70.9486 574.965 71.9027 576.927 72.8721L577.297 72.1229C579.269 73.0969 581.221 74.0865 583.152 75.0912L582.767 75.8325C584.729 76.8534 586.67 77.8901 588.589 78.942L588.991 78.2093C590.923 79.2684 592.832 80.3431 594.719 81.4331L594.302 82.1567C596.214 83.2613 598.103 84.3815 599.968 85.517L600.403 84.8033C602.288 85.9514 604.15 87.1151 605.986 88.2942L605.535 88.9974C607.389 90.1879 609.218 91.394 611.02 92.6153L611.489 91.9235C613.321 93.1647 615.126 94.4216 616.904 95.694L616.418 96.3735C618.204 97.6521 619.963 98.9462 621.694 100.255L622.198 99.5891C623.967 100.928 625.707 102.282 627.417 103.652L626.894 104.304C628.608 105.677 630.293 107.067 631.946 108.471L632.487 107.834C634.176 109.269 635.832 110.72 637.456 112.186L636.896 112.806C638.531 114.282 640.133 115.774 641.701 117.281L642.28 116.678C643.87 118.207 645.426 119.752 646.945 121.312L646.347 121.895C647.888 123.477 649.393 125.074 650.859 126.687L651.477 126.125C652.963 127.758 654.41 129.407 655.818 131.07L655.18 131.61C656.602 133.29 657.983 134.986 659.324 136.696L659.982 136.181C661.347 137.923 662.671 139.681 663.951 141.454L663.274 141.943C664.559 143.722 665.8 145.516 666.997 147.324L667.694 146.863C668.915 148.707 670.089 150.566 671.217 152.44L670.501 152.871C671.635 154.755 672.72 156.652 673.758 158.564L674.492 158.166C675.543 160.103 676.545 162.055 677.496 164.021L676.744 164.385C677.699 166.36 678.603 168.349 679.455 170.351L680.224 170.024C681.088 172.054 681.898 174.098 682.654 176.154L681.869 176.442C682.624 178.495 683.324 180.561 683.968 182.639L684.766 182.392C685.418 184.494 686.013 186.609 686.551 188.736L685.741 188.941C686.276 191.058 686.754 193.187 687.174 195.327L687.994 195.167C688.416 197.321 688.78 199.487 689.084 201.664L688.256 201.78C688.557 203.939 688.799 206.108 688.981 208.288L689.814 208.219Z" stroke="black" stroke-width="1.67125" stroke-dasharray="6.68 6.68"/>
<path opacity="0.2" d="M790.095 208.131C790.274 210.334 790.394 212.545 790.455 214.763L789.619 214.786C789.649 215.888 789.664 216.992 789.664 218.098C789.664 219.204 789.649 220.308 789.619 221.41L790.455 221.432C790.394 223.651 790.274 225.862 790.095 228.065L789.262 227.997C789.083 230.193 788.844 232.38 788.548 234.559L789.376 234.671C789.077 236.866 788.719 239.052 788.303 241.229L787.483 241.072C787.07 243.23 786.6 245.379 786.074 247.519L786.885 247.719C786.357 249.865 785.773 252.001 785.132 254.126L784.332 253.885C783.699 255.988 783.01 258.081 782.268 260.164L783.055 260.444C782.315 262.519 781.521 264.584 780.676 266.637L779.903 266.319C779.065 268.353 778.176 270.376 777.235 272.388L777.992 272.741C777.062 274.731 776.083 276.709 775.054 278.675L774.314 278.288C773.297 280.233 772.232 282.167 771.119 284.089L771.842 284.508C770.741 286.411 769.594 288.303 768.401 290.183L767.696 289.735C766.522 291.584 765.305 293.422 764.044 295.249L764.731 295.724C763.48 297.537 762.186 299.338 760.85 301.127L760.18 300.627C758.872 302.379 757.524 304.119 756.135 305.848L756.787 306.371C755.405 308.092 753.984 309.801 752.525 311.497L751.891 310.953C750.468 312.608 749.007 314.251 747.51 315.884L748.126 316.448C746.632 318.077 745.103 319.694 743.538 321.298L742.94 320.715C741.417 322.277 739.86 323.827 738.27 325.366L738.851 325.967C737.262 327.504 735.64 329.03 733.986 330.544L733.422 329.928C731.812 331.401 730.172 332.863 728.501 334.313L729.049 334.944C727.379 336.393 725.68 337.831 723.95 339.257L723.419 338.612C721.733 340.001 720.02 341.379 718.278 342.746L718.794 343.403C717.056 344.767 715.291 346.119 713.499 347.459L712.998 346.79C711.246 348.101 709.467 349.4 707.663 350.688L708.148 351.368C706.353 352.65 704.533 353.92 702.687 355.178L702.217 354.488C700.404 355.724 698.566 356.95 696.706 358.164L697.162 358.864C695.319 360.066 693.452 361.258 691.562 362.438L691.12 361.729C689.252 362.896 687.361 364.052 685.449 365.196L685.878 365.913C683.994 367.04 682.088 368.157 680.162 369.262L679.746 368.537C677.828 369.638 675.888 370.728 673.928 371.806L674.331 372.538C672.412 373.594 670.475 374.639 668.517 375.672L668.127 374.933C666.174 375.965 664.202 376.986 662.211 377.995L662.589 378.74C660.629 379.734 658.651 380.717 656.655 381.688L656.289 380.937C654.31 381.901 652.314 382.853 650.3 383.795L650.654 384.552C648.652 385.488 646.633 386.414 644.598 387.328L644.255 386.566C642.255 387.464 640.238 388.352 638.205 389.23L638.536 389.997C636.499 390.876 634.447 391.744 632.378 392.601L632.058 391.829C630.035 392.667 627.997 393.496 625.943 394.313L626.252 395.089C624.2 395.906 622.133 396.713 620.052 397.508L619.754 396.728C617.693 397.515 615.619 398.292 613.53 399.059L613.818 399.843C611.753 400.601 609.675 401.348 607.583 402.084L607.305 401.296C605.217 402.031 603.115 402.756 601 403.47L601.267 404.262C599.185 404.965 597.09 405.658 594.982 406.34L594.725 405.545C592.628 406.224 590.519 406.893 588.397 407.551L588.645 408.349C586.529 409.005 584.401 409.651 582.262 410.286L582.024 409.485C579.92 410.11 577.805 410.724 575.679 411.328L575.907 412.132C573.778 412.737 571.637 413.332 569.485 413.916L569.266 413.109C567.139 413.686 565.002 414.253 562.854 414.81L563.063 415.619C560.93 416.172 558.787 416.714 556.633 417.247L556.432 416.435C554.282 416.967 552.121 417.488 549.95 417.999L550.141 418.812C547.999 419.316 545.848 419.81 543.687 420.293L543.504 419.478C541.353 419.959 539.191 420.431 537.021 420.892L537.194 421.709C535.024 422.17 532.844 422.621 530.655 423.061L530.49 422.242C528.338 422.675 526.177 423.098 524.007 423.511L524.163 424.332C521.991 424.745 519.81 425.148 517.621 425.541L517.473 424.719C515.296 425.11 513.11 425.49 510.917 425.861L511.056 426.685C508.885 427.051 506.706 427.408 504.52 427.754L504.389 426.929C502.206 427.275 500.014 427.61 497.815 427.936L497.938 428.763C495.75 429.086 493.554 429.4 491.351 429.704L491.237 428.876C489.057 429.177 486.869 429.467 484.674 429.748L484.78 430.577C482.583 430.857 480.379 431.128 478.168 431.388L478.07 430.559C475.878 430.817 473.678 431.065 471.473 431.303L471.563 432.134C469.37 432.371 467.171 432.597 464.965 432.814L464.884 431.982C462.681 432.198 460.472 432.405 458.257 432.601L458.33 433.433C456.13 433.628 453.923 433.813 451.71 433.987L451.644 433.154C449.447 433.328 447.245 433.491 445.036 433.644L445.094 434.478C442.883 434.631 440.666 434.775 438.444 434.908L438.394 434.074C436.191 434.206 433.983 434.328 431.769 434.44L431.812 435.275C429.607 435.386 427.398 435.488 425.184 435.579L425.149 434.745C422.937 434.836 420.721 434.917 418.499 434.988L418.525 435.824C416.316 435.894 414.103 435.955 411.884 436.006L411.865 435.171C409.661 435.221 407.452 435.261 405.239 435.292L405.251 436.127C403.035 436.157 400.815 436.178 398.59 436.188L398.586 435.352C397.475 435.357 396.363 435.36 395.25 435.36C394.137 435.36 393.024 435.357 391.913 435.352L391.909 436.188C389.685 436.178 387.465 436.157 385.249 436.127L385.26 435.292C383.047 435.261 380.839 435.221 378.635 435.171L378.616 436.006C376.397 435.955 374.183 435.894 371.974 435.824L372.001 434.988C369.779 434.917 367.562 434.836 365.35 434.745L365.316 435.579C363.101 435.488 360.892 435.386 358.688 435.275L358.73 434.44C356.517 434.328 354.308 434.206 352.106 434.074L352.056 434.908C349.833 434.775 347.617 434.631 345.405 434.478L345.463 433.644C343.255 433.491 341.052 433.328 338.855 433.154L338.79 433.987C336.577 433.813 334.37 433.628 332.169 433.433L332.243 432.601C330.028 432.405 327.819 432.198 325.616 431.982L325.534 432.814C323.329 432.597 321.13 432.37 318.937 432.134L319.027 431.303C316.821 431.065 314.622 430.817 312.43 430.559L312.332 431.388C310.121 431.128 307.917 430.857 305.719 430.576L305.825 429.748C303.631 429.467 301.443 429.177 299.263 428.876L299.149 429.704C296.946 429.4 294.75 429.086 292.562 428.762L292.684 427.936C290.485 427.61 288.294 427.275 286.11 426.929L285.98 427.754C283.793 427.408 281.615 427.051 279.444 426.685L279.583 425.861C277.389 425.49 275.204 425.11 273.027 424.719L272.879 425.541C270.69 425.148 268.509 424.745 266.336 424.332L266.492 423.511C264.323 423.098 262.162 422.675 260.01 422.242L259.845 423.061C257.656 422.621 255.476 422.17 253.305 421.709L253.479 420.892C251.308 420.431 249.147 419.959 246.995 419.478L246.813 420.293C244.652 419.81 242.5 419.316 240.359 418.812L240.55 417.999C238.379 417.488 236.218 416.967 234.067 416.435L233.867 417.246C231.713 416.714 229.569 416.172 227.436 415.619L227.646 414.81C225.498 414.253 223.36 413.686 221.234 413.109L221.015 413.916C218.863 413.331 216.722 412.737 214.593 412.132L214.821 411.328C212.694 410.724 210.579 410.11 208.476 409.485L208.238 410.286C206.098 409.651 203.971 409.005 201.855 408.349L202.102 407.551C199.981 406.893 197.872 406.224 195.775 405.545L195.517 406.34C193.41 405.658 191.315 404.965 189.232 404.262L189.5 403.47C187.385 402.756 185.283 402.031 183.194 401.296L182.917 402.084C180.825 401.348 178.747 400.6 176.682 399.843L176.97 399.058C174.881 398.292 172.806 397.515 170.746 396.727L170.448 397.508C168.366 396.712 166.299 395.906 164.247 395.089L164.556 394.313C162.503 393.495 160.465 392.667 158.441 391.829L158.121 392.601C156.053 391.744 154 390.876 151.964 389.997L152.295 389.229C150.262 388.352 148.245 387.464 146.245 386.566L145.902 387.328C143.867 386.414 141.848 385.488 139.846 384.552L140.2 383.795C138.186 382.853 136.189 381.9 134.21 380.937L133.845 381.688C131.849 380.716 129.871 379.734 127.911 378.74L128.289 377.995C126.298 376.985 124.326 375.965 122.373 374.933L121.982 375.672C120.025 374.638 118.087 373.594 116.169 372.538L116.572 371.806C114.612 370.728 112.672 369.638 110.754 368.537L110.338 369.262C108.411 368.157 106.506 367.04 104.622 365.913L105.051 365.196C103.138 364.052 101.248 362.896 99.3799 361.729L98.9373 362.438C97.0478 361.258 95.1811 360.066 93.3376 358.864L93.7942 358.164C91.9333 356.95 90.0962 355.724 88.2832 354.488L87.8124 355.178C85.967 353.92 84.1466 352.65 82.3514 351.368L82.8369 350.688C81.0326 349.4 79.254 348.101 77.5015 346.79L77.0011 347.459C75.2086 346.119 73.4433 344.767 71.7056 343.403L72.2214 342.746C70.4799 341.379 68.7663 340.001 67.0811 338.612L66.5495 339.256C64.8202 337.831 63.1205 336.393 61.451 334.944L61.9987 334.313C60.3279 332.863 58.6875 331.401 57.078 329.928L56.5138 330.544C54.8597 329.03 53.2379 327.504 51.6491 325.967L52.2303 325.366C50.6401 323.827 49.0832 322.277 47.56 320.715L46.9618 321.298C45.3969 319.693 43.8674 318.077 42.3738 316.448L42.9896 315.883C41.4927 314.251 40.0321 312.608 38.6085 310.952L37.975 311.497C36.5155 309.8 35.0945 308.091 33.7127 306.371L34.3643 305.848C32.976 304.119 31.6276 302.379 30.3196 300.627L29.6501 301.127C28.3141 299.338 27.0199 297.536 25.7684 295.724L26.456 295.249C25.195 293.422 23.9775 291.584 22.8042 289.735L22.0986 290.182C20.906 288.302 19.7586 286.411 18.6573 284.508L19.3806 284.089C18.2681 282.167 17.2031 280.233 16.1861 278.288L15.4456 278.675C14.4172 276.708 13.4377 274.73 12.5077 272.741L13.2646 272.387C12.324 270.375 11.4345 268.352 10.5969 266.319L9.82425 266.637C8.97845 264.584 8.18516 262.519 7.44521 260.444L8.23229 260.163C7.48971 258.081 6.80126 255.988 6.16775 253.885L5.36764 254.126C4.72727 252 4.14261 249.864 3.61453 247.718L4.42595 247.519C3.8995 245.379 3.42968 243.23 3.01732 241.072L2.19654 241.228C1.78077 239.052 1.42301 236.866 1.12413 234.671L1.95211 234.558C1.65545 232.38 1.4172 230.192 1.23821 227.996L0.405348 228.064C0.225836 225.862 0.105519 223.651 0.0452529 221.432L0.880569 221.409C0.850641 220.308 0.835624 219.204 0.835624 218.098C0.835624 216.992 0.850644 215.888 0.880578 214.786L0.0452627 214.763C0.105535 212.544 0.225859 210.333 0.405377 208.131L1.23824 208.199C1.41724 206.003 1.65549 203.815 1.95215 201.637L1.12417 201.524C1.42306 199.329 1.78083 197.143 2.1966 194.967L3.01738 195.124C3.42974 192.965 3.89957 190.816 4.42602 188.677L3.61461 188.477C4.1427 186.331 4.72736 184.195 5.36773 182.069L6.16783 182.31C6.80135 180.207 7.48981 178.114 8.23239 176.032L7.44531 175.751C8.18526 173.676 8.97855 171.612 9.82436 169.558L10.597 169.876C11.4346 167.843 12.3241 165.82 13.2648 163.808L12.5078 163.454C13.4378 161.465 14.4174 159.487 15.4458 157.52L16.1863 157.907C17.2032 155.963 18.2683 154.029 19.3807 152.106L18.6575 151.688C19.7588 149.785 20.9061 147.893 22.0988 146.013L22.8044 146.461C23.9776 144.611 25.1951 142.773 26.4562 140.947L25.7685 140.472C27.0201 138.659 28.3142 136.858 29.6502 135.069L30.3198 135.569C31.6277 133.817 32.9762 132.076 34.3644 130.348L33.7129 129.825C35.0947 128.104 36.5157 126.395 37.9752 124.698L38.6087 125.243C40.0323 123.588 41.4929 121.944 42.9898 120.312L42.374 119.747C43.8676 118.119 45.3971 116.502 46.9619 114.897L47.5602 115.481C49.0833 113.919 50.6403 112.368 52.2304 110.829L51.6493 110.229C53.2381 108.691 54.8599 107.165 56.514 105.651L57.0782 106.268C58.6877 104.795 60.3281 103.333 61.9989 101.883L61.4512 101.251C63.1207 99.8023 64.8204 98.3647 66.5497 96.9391L67.0813 97.5838C68.7665 96.1945 70.4801 94.8164 72.2216 93.4498L71.7058 92.7924C73.4435 91.4287 75.2088 90.0766 77.0013 88.7361L77.5017 89.4053C79.2542 88.0948 81.0328 86.7954 82.8371 85.5075L82.3516 84.8273C84.1468 83.5459 85.9673 82.2758 87.8126 81.0173L88.2834 81.7076C90.0964 80.4711 91.9335 79.2458 93.7944 78.0317L93.3378 77.3319C95.1813 76.1292 97.048 74.9377 98.9375 73.7576L99.3801 74.4663C101.248 73.2996 103.139 72.1439 105.051 70.9996L104.622 70.2825C106.506 69.1551 108.412 68.0387 110.338 66.9335L110.754 67.6583C112.672 66.5575 114.612 65.4678 116.572 64.3894L116.169 63.6573C118.088 62.6017 120.025 61.557 121.983 60.5233L122.373 61.2622C124.326 60.2306 126.298 59.2101 128.289 58.2006L127.911 57.4553C129.871 56.4618 131.849 55.479 133.845 54.5072L134.211 55.2585C136.19 54.295 138.186 53.3422 140.2 52.4003L139.846 51.6434C141.848 50.7073 143.867 49.782 145.902 48.8676L146.245 49.6299C148.245 48.7313 150.262 47.8433 152.295 46.966L151.964 46.1988C154.001 45.3199 156.053 44.4518 158.122 43.5946L158.442 44.3666C160.465 43.5281 162.503 42.7 164.557 41.8826L164.248 41.1063C166.3 40.2893 168.367 39.483 170.448 38.6875L170.746 39.468C172.807 38.6805 174.881 37.9034 176.97 37.1371L176.682 36.3526C178.747 35.595 180.825 34.8479 182.917 34.1113L183.195 34.8995C185.283 34.1641 187.385 33.4393 189.5 32.7251L189.233 31.9334C191.315 31.2303 193.41 30.5374 195.518 29.8551L195.775 30.6501C197.872 29.9712 199.981 29.3027 202.103 28.6446L201.855 27.8465C203.971 27.1903 206.098 26.5445 208.238 25.9093L208.476 26.7103C210.58 26.0857 212.695 25.4714 214.821 24.8673L214.593 24.0635C216.722 23.4586 218.863 22.864 221.015 22.2799L221.234 23.0863C223.361 22.5091 225.498 21.9421 227.646 21.3855L227.436 20.5766C229.57 20.0238 231.713 19.4812 233.867 18.949L234.068 19.7602C236.218 19.2287 238.379 18.7075 240.55 18.1968L240.359 17.3834C242.501 16.8795 244.652 16.3857 246.813 15.9022L246.996 16.7177C249.147 16.2362 251.309 15.7649 253.479 15.3039L253.306 14.4865C255.476 14.0254 257.656 13.5746 259.845 13.1342L260.01 13.9534C262.162 13.5204 264.323 13.0974 266.493 12.6846L266.337 11.8637C268.509 11.4503 270.69 11.0471 272.879 10.6541L273.027 11.4766C275.204 11.0858 277.39 10.7052 279.583 10.3348L279.444 9.51083C281.615 9.14434 283.794 8.78788 285.98 8.44155L286.111 9.26688C288.294 8.921 290.486 8.58523 292.685 8.25968L292.562 7.43306C294.75 7.10912 296.946 6.79528 299.149 6.49163L299.263 7.31943C301.443 7.0189 303.631 6.72837 305.826 6.44793L305.72 5.61905C307.917 5.33827 310.121 5.0676 312.332 4.80713L312.43 5.63702C314.622 5.37877 316.821 5.13057 319.027 4.89251L318.937 4.06171C321.13 3.82505 323.329 3.59839 325.535 3.38182L325.616 4.21345C327.819 3.99714 330.028 3.79092 332.243 3.59486L332.17 2.76249C334.37 2.56772 336.577 2.38297 338.79 2.20834L338.856 3.04137C341.053 2.86799 343.255 2.70458 345.464 2.55124L345.406 1.71763C347.617 1.56411 349.834 1.42067 352.056 1.28739L352.106 2.12151C354.309 1.9894 356.517 1.86729 358.731 1.75526L358.688 0.9207C360.892 0.80915 363.102 0.707585 365.316 0.616089L365.351 1.451C367.562 1.35961 369.779 1.27827 372.001 1.20708L371.975 0.371884C374.184 0.301099 376.397 0.240325 378.616 0.189643L378.635 1.02505C380.839 0.974701 383.048 0.934324 385.261 0.903996L385.249 0.0684506C387.465 0.0380879 389.685 0.0177863 391.91 0.00762556L391.914 0.84324C393.025 0.838166 394.137 0.835624 395.25 0.835624C396.363 0.835624 397.476 0.838167 398.587 0.843243L398.591 0.00762751C400.815 0.0177896 403.035 0.0380924 405.251 0.0684564L405.24 0.904002C407.453 0.934331 409.661 0.97471 411.865 1.02506L411.884 0.189652C414.103 0.240336 416.317 0.301112 418.526 0.371897L418.499 1.20709C420.721 1.27829 422.938 1.35962 425.15 1.45102L425.184 0.616104C427.399 0.707602 429.608 0.809168 431.812 0.92072L431.77 1.75528C433.983 1.86731 436.192 1.98942 438.394 2.12154L438.444 1.28741C440.667 1.42069 442.883 1.56413 445.094 1.71765L445.037 2.55127C447.245 2.70461 449.448 2.86802 451.645 3.0414L451.71 2.20837C453.923 2.383 456.13 2.56775 458.331 2.76252L458.257 3.59489C460.472 3.79095 462.681 3.99717 464.884 4.21348L464.966 3.38186C467.171 3.59842 469.37 3.82508 471.563 4.06175L471.473 4.89255C473.679 5.13061 475.878 5.37881 478.07 5.63706L478.168 4.80717C480.379 5.06764 482.583 5.33831 484.781 5.61909L484.675 6.44798C486.869 6.72841 489.057 7.01894 491.237 7.31948L491.351 6.49168C493.554 6.79532 495.75 7.10916 497.938 7.43311L497.816 8.25972C500.015 8.58527 502.206 8.92105 504.39 9.26693L504.52 8.4416C506.707 8.78793 508.885 9.14439 511.056 9.51089L510.917 10.3348C513.111 10.7052 515.296 11.0859 517.473 11.4766L517.621 10.6542C519.81 11.0471 521.991 11.4504 524.164 11.8637L524.007 12.6846C526.177 13.0975 528.338 13.5204 530.49 13.9535L530.655 13.1343C532.844 13.5747 535.024 14.0255 537.195 14.4865L537.021 15.3039C539.192 15.765 541.353 16.2363 543.505 16.7177L543.687 15.9023C545.848 16.3858 548 16.8795 550.141 17.3834L549.95 18.1968C552.121 18.7076 554.282 19.2288 556.433 19.7603L556.633 18.9491C558.787 19.4813 560.931 20.0239 563.064 20.5766L562.854 21.3855C565.002 21.9422 567.14 22.5092 569.266 23.0864L569.485 22.28C571.637 22.864 573.778 23.4586 575.907 24.0636L575.679 24.8674C577.805 25.4714 579.921 26.0858 582.024 26.7104L582.262 25.9093C584.402 26.5446 586.529 27.1903 588.645 27.8466L588.398 28.6447C590.519 29.3027 592.628 29.9713 594.725 30.6502L594.983 29.8552C597.09 30.5375 599.185 31.2303 601.268 31.9335L601 32.7252C603.115 33.4394 605.217 34.1642 607.305 34.8996L607.583 34.1114C609.675 34.848 611.753 35.5951 613.818 36.3527L613.53 37.1371C615.619 37.9035 617.694 38.6805 619.754 39.4681L620.052 38.6876C622.134 39.4831 624.201 40.2894 626.253 41.1064L625.943 41.8827C627.997 42.7001 630.035 43.5282 632.059 44.3667L632.379 43.5947C634.447 44.4519 636.5 45.32 638.536 46.1989L638.205 46.9661C640.238 47.8434 642.255 48.7314 644.255 49.6299L644.598 48.8677C646.633 49.7821 648.652 50.7074 650.654 51.6435L650.3 52.4004C652.314 53.3423 654.311 54.2951 656.29 55.2586L656.655 54.5073C658.651 55.4791 660.629 56.4619 662.589 57.4554L662.211 58.2007C664.202 59.2102 666.174 60.2308 668.127 61.2623L668.518 60.5234C670.475 61.5571 672.413 62.6018 674.331 63.6574L673.928 64.3895C675.888 65.4679 677.828 66.5576 679.746 67.6584L680.162 66.9336C682.089 68.0388 683.994 69.1553 685.878 70.2827L685.449 70.9997C687.362 72.1441 689.252 73.2997 691.12 74.4664L691.563 73.7577C693.452 74.9378 695.319 76.1293 697.162 77.332L696.706 78.0319C698.567 79.2459 700.404 80.4713 702.217 81.7078L702.688 81.0174C704.533 82.2759 706.353 83.5461 708.148 84.8275L707.663 85.5076C709.467 86.7956 711.246 88.0949 712.998 89.4055L713.499 88.7363C715.291 90.0767 717.057 91.4289 718.794 92.7925L718.279 93.4499C720.02 94.8165 721.734 96.1946 723.419 97.584L723.95 96.9392C725.68 98.3649 727.379 99.8024 729.049 101.252L728.501 101.883C730.172 103.333 731.812 104.795 733.422 106.268L733.986 105.651C735.64 107.165 737.262 108.691 738.851 110.229L738.27 110.829C739.86 112.368 741.417 113.919 742.94 115.481L743.538 114.897C745.103 116.502 746.633 118.119 748.126 119.747L747.51 120.312C749.007 121.944 750.468 123.588 751.891 125.243L752.525 124.698C753.984 126.395 755.405 128.104 756.787 129.825L756.136 130.348C757.524 132.077 758.872 133.817 760.18 135.569L760.85 135.069C762.186 136.858 763.48 138.659 764.732 140.472L764.044 140.947C765.305 142.773 766.522 144.611 767.696 146.461L768.401 146.013C769.594 147.893 770.741 149.785 771.843 151.688L771.119 152.107C772.232 154.029 773.297 155.963 774.314 157.908L775.054 157.52C776.083 159.487 777.062 161.465 777.992 163.454L777.235 163.808C778.176 165.82 779.065 167.843 779.903 169.877L780.676 169.558C781.521 171.612 782.315 173.676 783.055 175.752L782.268 176.032C783.01 178.115 783.699 180.208 784.332 182.311L785.132 182.069C785.773 184.195 786.357 186.331 786.885 188.477L786.074 188.677C786.6 190.816 787.07 192.966 787.483 195.124L788.303 194.967C788.719 197.144 789.077 199.329 789.376 201.524L788.548 201.637C788.844 203.816 789.083 206.003 789.262 208.199L790.095 208.131Z" stroke="black" stroke-width="1.67125" stroke-dasharray="6.68 6.68"/>
<rect width="49.1578" height="49.1578" transform="translate(139.072 153.127)" fill="black"/>
<g clip-path="url(#clip0_1737_31885)">
<path d="M175.94 167.651C174.87 168.406 173.686 168.983 172.432 169.36C171.759 168.587 170.865 168.038 169.87 167.789C168.876 167.54 167.829 167.603 166.871 167.969C165.913 168.334 165.09 168.985 164.514 169.834C163.938 170.682 163.637 171.687 163.651 172.712V173.829C161.687 173.88 159.742 173.445 157.988 172.562C156.233 171.679 154.725 170.375 153.596 168.768C153.596 168.768 149.127 178.823 159.182 183.292C156.881 184.854 154.14 185.637 151.361 185.526C161.416 191.113 173.706 185.526 173.706 172.678C173.705 172.367 173.675 172.057 173.616 171.751C174.757 170.627 175.561 169.207 175.94 167.651V167.651Z" stroke="white" stroke-width="2.23445" stroke-linecap="round" stroke-linejoin="round"/>
</g>
<rect width="49.1578" height="49.1578" transform="translate(11.7078 145.865)" fill="black"/>
<g clip-path="url(#clip1_1737_31885)">
<path d="M48.576 160.389C47.5061 161.143 46.3215 161.721 45.0679 162.098C44.395 161.324 43.5008 160.776 42.5061 160.527C41.5115 160.278 40.4644 160.341 39.5064 160.706C38.5485 161.072 37.726 161.723 37.1501 162.571C36.5742 163.42 36.2728 164.424 36.2865 165.45V166.567C34.3232 166.618 32.3777 166.182 30.6233 165.299C28.869 164.416 27.3603 163.113 26.2315 161.506C26.2315 161.506 21.7626 171.561 31.8176 176.03C29.5167 177.592 26.7758 178.375 23.9971 178.264C34.0521 183.85 46.3415 178.264 46.3415 165.416C46.3405 165.105 46.3106 164.795 46.2521 164.489C47.3924 163.364 48.197 161.945 48.576 160.389V160.389Z" stroke="white" stroke-width="2.23445" stroke-linecap="round" stroke-linejoin="round"/>
</g>
<rect width="49.1578" height="49.1578" transform="translate(114.493 224.07)" fill="black"/>
<g clip-path="url(#clip2_1737_31885)">
<path d="M151.361 238.594C150.291 239.349 149.106 239.926 147.853 240.304C147.18 239.53 146.286 238.982 145.291 238.733C144.296 238.484 143.249 238.546 142.291 238.912C141.333 239.278 140.511 239.929 139.935 240.777C139.359 241.625 139.058 242.63 139.071 243.655V244.772C137.108 244.823 135.163 244.388 133.408 243.505C131.654 242.622 130.145 241.319 129.016 239.711C129.016 239.711 124.548 249.766 134.603 254.235C132.302 255.797 129.561 256.58 126.782 256.47C136.837 262.056 149.126 256.47 149.126 243.622C149.125 243.311 149.095 243 149.037 242.694C150.177 241.57 150.982 240.15 151.361 238.594V238.594Z" stroke="white" stroke-width="2.23445" stroke-linecap="round" stroke-linejoin="round"/>
</g>
<g opacity="0.1">
<rect width="20.11" height="20.11" transform="translate(89.9136 164.857)" fill="black"/>
</g>
<g opacity="0.5">
<rect width="20.11" height="20.11" transform="translate(8.35645 239.711)" fill="black"/>
</g>
<g opacity="0.5">
<rect width="20.11" height="20.11" transform="translate(123.431 115.7)" fill="black"/>
</g>
<g opacity="0.1">
<rect width="20.11" height="20.11" transform="translate(69.8035 273.228)" fill="black"/>
</g>
<g opacity="0.1">
<rect width="20.11" height="20.11" transform="translate(191.581 253.118)" fill="black"/>
</g>
<g opacity="0.5">
<rect width="20.11" height="20.11" transform="translate(64.2178 218.484)" fill="black"/>
</g>
<path d="M510.148 92.0466H275.327V326.311H510.148V92.0466Z" fill="black"/>
<path d="M500.806 82.7266H265.984V316.991H500.806V82.7266Z" fill="#DB1111"/>
<path d="M438.679 272.021C428.449 271.928 416.351 265.87 405.373 255.478C395.237 245.785 387.67 233.994 385.194 223.929C382.905 214.608 385.241 207.572 391.78 204.03C401.777 198.671 411.446 207.385 420.835 215.773C427.982 222.204 435.363 228.822 442.089 228.216C445.452 227.89 448.535 225.839 451.572 221.925C452.132 221.226 453.16 221.086 453.861 221.645C454.561 222.204 454.701 223.23 454.141 223.929C450.544 228.635 446.667 231.059 442.369 231.478C434.242 232.224 426.3 225.094 418.593 218.197C409.671 210.181 401.263 202.632 393.275 206.873C386.735 210.368 386.969 217.637 388.324 223.09C393.228 242.849 418.5 268.526 438.679 268.712C439.567 268.712 440.314 269.458 440.314 270.343C440.314 271.322 439.567 272.021 438.679 272.021Z" fill="white"/>
<path d="M328.391 136.598C328.018 136.598 327.644 136.458 327.364 136.225C326.663 135.666 326.57 134.64 327.13 133.941C332.876 126.951 341.191 121.545 351.841 117.864C351.888 117.864 351.888 117.864 351.934 117.817C360.81 115.301 369.545 114.602 377.813 115.674C378.7 115.767 379.354 116.606 379.214 117.491C379.121 118.377 378.28 119.029 377.392 118.889C369.545 117.864 361.323 118.563 352.869 120.94C342.825 124.435 335.025 129.468 329.699 135.992C329.326 136.411 328.859 136.598 328.391 136.598Z" fill="white"/>
<path d="M429.897 277.846C429.85 277.846 429.757 277.846 429.71 277.846C419.527 276.727 407.569 271.322 397.666 263.353C389.584 256.829 379.168 245.738 375.431 229.8C372.908 219.082 376.505 199.649 387.763 194.756C401.122 188.931 412.707 198.857 422.937 207.571C429.663 213.35 436.016 218.755 441.155 217.823C443.911 217.311 446.386 214.888 448.769 210.507C449.189 209.715 450.17 209.389 450.964 209.808C451.758 210.227 452.085 211.206 451.665 211.998C448.815 217.357 445.592 220.293 441.809 220.992C435.175 222.251 428.215 216.332 420.882 210.041C411.399 201.932 400.655 192.705 389.164 197.738C379.915 201.793 376.458 219.501 378.701 229.054C385.007 255.803 412.614 272.72 430.177 274.63C431.065 274.723 431.719 275.516 431.625 276.448C431.439 277.24 430.738 277.846 429.897 277.846Z" fill="white"/>
<path d="M419.386 282.273C419.292 282.273 419.152 282.273 419.059 282.226C399.253 278.219 373.327 261.862 365.526 228.915C363.751 221.505 364.359 212.138 367.161 203.89C370.291 194.57 375.663 187.859 382.343 184.923C398.599 177.793 411.818 188.931 422.422 197.878C429.055 203.47 434.801 208.317 439.472 207.525C441.807 207.152 443.956 205.334 445.965 201.933C446.432 201.14 447.413 200.907 448.207 201.373C449.001 201.839 449.235 202.818 448.767 203.61C446.198 207.851 443.349 210.181 439.986 210.74C433.82 211.765 427.513 206.453 420.273 200.348C409.81 191.541 397.991 181.568 383.604 187.859C377.765 190.422 373 196.434 370.198 204.868C367.629 212.558 367.021 221.272 368.656 228.122C376.13 259.578 400.794 275.19 419.666 279.011C420.553 279.197 421.114 280.036 420.927 280.921C420.834 281.76 420.133 282.273 419.386 282.273Z" fill="white"/>
<path d="M445.125 264.564C434.242 264.564 422.19 255.151 415.884 249.466C406.308 240.798 398.273 230.219 395.47 222.53C394.583 220.107 395.611 217.59 398.04 216.192C400.562 214.794 404.346 214.887 406.728 217.823C417.986 231.617 428.309 238.747 437.371 238.98C442.883 239.12 448.022 236.65 452.646 231.571C453.253 230.918 454.281 230.872 454.935 231.477C455.589 232.083 455.636 233.109 455.028 233.761C449.75 239.539 443.771 242.382 437.278 242.196C427.235 241.916 416.071 234.413 404.159 219.827C402.851 218.243 400.889 218.289 399.628 218.988C399.114 219.268 398.04 220.06 398.507 221.365C403.832 235.905 429.15 261.256 445.125 261.256C445.266 261.256 445.452 261.256 445.593 261.256C446.527 261.256 447.228 261.955 447.274 262.84C447.321 263.726 446.574 264.471 445.686 264.518C445.546 264.564 445.359 264.564 445.125 264.564Z" fill="white"/>
<path d="M403.97 284.556C403.783 284.556 403.596 284.51 403.362 284.463C379.913 275.469 363.143 257.434 356.09 233.714C353.007 223.369 353.661 210.553 357.911 199.416C362.536 187.3 370.57 178.585 380.614 174.904C399.625 167.913 413.312 179.89 423.262 188.604C428.914 193.544 433.772 197.785 437.742 197.365C439.564 197.179 441.246 196.014 442.974 193.777C443.535 193.078 444.562 192.938 445.263 193.451C445.964 194.01 446.104 195.035 445.59 195.734C443.301 198.717 440.872 200.301 438.116 200.581C432.698 201.14 427.326 196.433 421.113 191.028C411.21 182.406 398.925 171.642 381.735 177.933C362.022 185.202 353.427 213.35 359.219 232.736C365.993 255.477 382.062 272.719 404.53 281.341C405.371 281.667 405.791 282.599 405.464 283.438C405.231 284.137 404.624 284.556 403.97 284.556Z" fill="white"/>
<path d="M371.881 274.863C371.461 274.863 371.04 274.677 370.713 274.351C357.494 260.79 349.226 247.229 345.396 232.876C341.285 217.357 341.378 202.864 345.723 190.888C350.487 177.746 360.157 168.566 373.656 164.372C396.358 157.335 410.933 167.121 421.536 174.345C429.104 179.424 433.214 181.987 436.951 179.098C437.652 178.539 438.68 178.678 439.24 179.424C439.801 180.123 439.661 181.148 438.913 181.708C433.121 186.135 426.908 181.941 419.668 177.047C409.578 170.244 395.798 160.923 374.591 167.494C345.069 176.675 342.079 208.037 348.479 232.083C352.122 245.924 360.157 259.019 372.956 272.16C373.563 272.813 373.563 273.838 372.909 274.444C372.722 274.723 372.302 274.863 371.881 274.863Z" fill="white"/>
<path d="M338.013 229.427C337.312 229.427 336.612 228.961 336.425 228.215C333.062 215.68 332.174 188.884 344.132 170.383C351.046 159.665 361.276 153.094 374.448 150.904C391.452 148.108 404.858 155.797 415.602 161.995C421.628 165.444 426.813 168.426 431.25 168.845C432.138 168.939 432.792 169.731 432.745 170.616C432.652 171.502 431.858 172.154 430.97 172.107C425.832 171.595 420.32 168.473 414.014 164.838C403.69 158.919 390.844 151.51 375.009 154.166C362.724 156.216 353.288 162.275 346.888 172.201C335.117 190.468 336.892 217.311 339.601 227.423C339.835 228.308 339.321 229.194 338.433 229.427C338.293 229.427 338.153 229.427 338.013 229.427Z" fill="white"/>
<path d="M325.962 210.134C325.215 210.134 324.561 209.621 324.374 208.876C322.085 199.276 322.505 177.979 333.203 161.482C340.957 149.506 352.635 142.003 367.863 139.114C385.193 135.805 398.273 141.91 408.783 146.85C414.622 149.599 419.667 151.929 424.151 152.116C425.039 152.162 425.739 152.908 425.739 153.793C425.693 154.679 424.945 155.378 424.058 155.378C418.919 155.191 413.594 152.675 407.428 149.832C397.338 145.125 384.819 139.254 368.517 142.376C354.176 145.079 343.246 152.162 336.005 163.347C325.869 178.958 325.495 199.183 327.644 208.223C327.831 209.109 327.317 209.994 326.429 210.181C326.196 210.134 326.102 210.134 325.962 210.134Z" fill="white"/>
<path d="M312.976 179.331C312.929 179.331 312.836 179.331 312.789 179.331C311.901 179.238 311.247 178.399 311.388 177.513C312.602 167.494 316.433 158.36 322.692 150.345C328.531 142.889 336.472 136.691 345.628 132.497C356.278 127.604 368.283 125.46 380.335 126.299C393.134 127.231 405.699 131.565 416.723 138.834C417.471 139.347 417.658 140.326 417.191 141.118C416.677 141.863 415.696 142.05 414.902 141.584C394.068 127.79 368.703 125.506 347.029 135.479C328.765 143.867 316.946 159.339 314.657 177.886C314.517 178.725 313.77 179.331 312.976 179.331Z" fill="white"/>
<path d="M447.787 252.588C431.251 252.588 409.249 237.163 405.092 228.588C404.718 227.796 405.045 226.817 405.839 226.398C406.633 226.025 407.614 226.351 408.035 227.144C411.818 234.879 435.782 251.982 451.524 248.953C452.411 248.767 453.252 249.372 453.439 250.258C453.626 251.143 453.018 251.982 452.131 252.168C450.729 252.448 449.281 252.588 447.787 252.588Z" fill="white"/>
<rect x="243.598" y="240.033" width="45.8153" height="45.8153" fill="#D0D0D0"/>
<g clip-path="url(#clip3_1737_31885)">
<path d="M278.796 252.886C277.726 253.64 276.541 254.217 275.288 254.595C274.615 253.821 273.721 253.273 272.726 253.024C271.731 252.775 270.684 252.838 269.726 253.203C268.768 253.569 267.946 254.22 267.37 255.068C266.794 255.917 266.493 256.921 266.506 257.947V259.064C264.543 259.115 262.597 258.679 260.843 257.796C259.089 256.913 257.58 255.61 256.451 254.003C256.451 254.003 251.982 264.058 262.037 268.527C259.736 270.088 256.996 270.872 254.217 270.761C264.272 276.347 276.561 270.761 276.561 257.913C276.56 257.602 276.53 257.291 276.472 256.986C277.612 255.861 278.417 254.441 278.796 252.886V252.886Z" stroke="black" stroke-width="2.23445" stroke-linecap="round" stroke-linejoin="round"/>
</g>
<rect x="243.598" y="240.033" width="45.8153" height="45.8153" stroke="black" stroke-width="3.34249" stroke-dasharray="6.68 6.68"/>
<rect x="477.573" y="114.689" width="45.8153" height="45.8153" fill="#D0D0D0"/>
<g clip-path="url(#clip4_1737_31885)">
<path d="M512.77 127.542C511.7 128.297 510.516 128.874 509.262 129.251C508.589 128.478 507.695 127.929 506.7 127.68C505.706 127.432 504.658 127.494 503.701 127.86C502.743 128.225 501.92 128.876 501.344 129.725C500.768 130.573 500.467 131.578 500.481 132.603V133.72C498.517 133.771 496.572 133.336 494.817 132.453C493.063 131.57 491.554 130.266 490.426 128.659C490.426 128.659 485.957 138.714 496.012 143.183C493.711 144.745 490.97 145.528 488.191 145.418C498.246 151.004 510.536 145.418 510.536 132.569C510.535 132.258 510.505 131.948 510.446 131.642C511.586 130.518 512.391 129.098 512.77 127.542V127.542Z" stroke="black" stroke-width="2.23445" stroke-linecap="round" stroke-linejoin="round"/>
</g>
<rect x="477.573" y="114.689" width="45.8153" height="45.8153" stroke="black" stroke-width="3.34249" stroke-dasharray="6.68 6.68"/>
<rect width="49.1578" height="49.1578" transform="translate(686.011 153.127)" fill="#DB1111"/>
<g clip-path="url(#clip5_1737_31885)">
<path d="M722.879 167.651C721.81 168.405 720.625 168.982 719.371 169.36C718.698 168.586 717.804 168.038 716.81 167.789C715.815 167.54 714.768 167.603 713.81 167.968C712.852 168.334 712.029 168.985 711.454 169.833C710.878 170.682 710.576 171.686 710.59 172.712V173.829C708.627 173.88 706.681 173.444 704.927 172.561C703.172 171.678 701.664 170.375 700.535 168.768C700.535 168.768 696.066 178.823 706.121 183.292C703.82 184.854 701.079 185.637 698.301 185.526C708.356 191.112 720.645 185.526 720.645 172.678C720.644 172.367 720.614 172.057 720.556 171.751C721.696 170.626 722.501 169.207 722.879 167.651V167.651Z" stroke="white" stroke-width="2.23445" stroke-linecap="round" stroke-linejoin="round"/>
</g>
<rect width="49.1578" height="49.1578" transform="translate(558.647 145.865)" fill="#DB1111"/>
<g clip-path="url(#clip6_1737_31885)">
<path d="M595.516 160.388C594.446 161.143 593.261 161.72 592.008 162.098C591.335 161.324 590.44 160.776 589.446 160.527C588.451 160.278 587.404 160.341 586.446 160.706C585.488 161.072 584.666 161.723 584.09 162.571C583.514 163.419 583.212 164.424 583.226 165.449V166.567C581.263 166.618 579.317 166.182 577.563 165.299C575.809 164.416 574.3 163.113 573.171 161.506C573.171 161.506 568.702 171.561 578.757 176.03C576.456 177.591 573.715 178.375 570.937 178.264C580.992 183.85 593.281 178.264 593.281 165.416C593.28 165.105 593.25 164.794 593.192 164.489C594.332 163.364 595.137 161.944 595.516 160.388V160.388Z" stroke="white" stroke-width="2.23445" stroke-linecap="round" stroke-linejoin="round"/>
</g>
<rect width="49.1578" height="49.1578" transform="translate(661.432 224.07)" fill="#DB1111"/>
<g clip-path="url(#clip7_1737_31885)">
<path d="M698.3 238.594C697.23 239.349 696.046 239.926 694.792 240.304C694.119 239.53 693.225 238.982 692.231 238.733C691.236 238.484 690.189 238.546 689.231 238.912C688.273 239.278 687.45 239.929 686.874 240.777C686.299 241.625 685.997 242.63 686.011 243.655V244.772C684.048 244.823 682.102 244.388 680.348 243.505C678.593 242.622 677.085 241.319 675.956 239.711C675.956 239.711 671.487 249.766 681.542 254.235C679.241 255.797 676.5 256.58 673.721 256.47C683.776 262.056 696.066 256.47 696.066 243.622C696.065 243.311 696.035 243 695.977 242.694C697.117 241.57 697.921 240.15 698.3 238.594V238.594Z" stroke="white" stroke-width="2.23445" stroke-linecap="round" stroke-linejoin="round"/>
</g>
<g opacity="0.5">
<rect width="20.11" height="20.11" transform="translate(636.854 164.857)" fill="#DB1111"/>
</g>
<g opacity="0.5">
<rect width="20.11" height="20.11" transform="translate(555.296 239.711)" fill="#DB1111"/>
</g>
<g opacity="0.2">
<rect width="20.11" height="20.11" transform="translate(670.37 115.699)" fill="#DB1111"/>
</g>
<g opacity="0.5">
<rect width="20.11" height="20.11" transform="translate(616.743 273.228)" fill="#DB1111"/>
</g>
<g opacity="0.2">
<rect width="20.11" height="20.11" transform="translate(738.521 253.118)" fill="#DB1111"/>
</g>
<g opacity="0.2">
<rect width="20.11" height="20.11" transform="translate(611.157 218.484)" fill="#DB1111"/>
</g>
<defs>
<clipPath id="clip0_1737_31885">
<rect width="26.8133" height="26.8133" fill="white" transform="translate(150.244 164.299)"/>
</clipPath>
<clipPath id="clip1_1737_31885">
<rect width="26.8133" height="26.8133" fill="white" transform="translate(22.8799 157.037)"/>
</clipPath>
<clipPath id="clip2_1737_31885">
<rect width="26.8133" height="26.8133" fill="white" transform="translate(125.665 235.242)"/>
</clipPath>
<clipPath id="clip3_1737_31885">
<rect width="26.8133" height="26.8133" fill="white" transform="translate(253.1 249.534)"/>
</clipPath>
<clipPath id="clip4_1737_31885">
<rect width="26.8133" height="26.8133" fill="white" transform="translate(487.074 124.19)"/>
</clipPath>
<clipPath id="clip5_1737_31885">
<rect width="26.8133" height="26.8133" fill="white" transform="translate(697.183 164.299)"/>
</clipPath>
<clipPath id="clip6_1737_31885">
<rect width="26.8133" height="26.8133" fill="white" transform="translate(569.82 157.037)"/>
</clipPath>
<clipPath id="clip7_1737_31885">
<rect width="26.8133" height="26.8133" fill="white" transform="translate(672.604 235.242)"/>
</clipPath>
</defs>
</svg>
