<svg width="204" height="179" viewBox="0 0 204 179" fill="none" xmlns="http://www.w3.org/2000/svg">
<rect width="49.1578" height="49.1578" transform="translate(131.072 38.127)" fill="black"/>
<g clip-path="url(#clip0_1737_31888)">
<path d="M167.94 52.6509C166.87 53.4055 165.686 53.9827 164.432 54.3602C163.759 53.5866 162.865 53.0382 161.87 52.7893C160.876 52.5405 159.829 52.6031 158.871 52.9687C157.913 53.3343 157.09 53.9853 156.514 54.8336C155.938 55.6819 155.637 56.6867 155.651 57.7119V58.8291C153.687 58.88 151.742 58.4446 149.988 57.5616C148.233 56.6786 146.725 55.3754 145.596 53.7681C145.596 53.7681 141.127 63.8231 151.182 68.292C148.881 69.8538 146.14 70.637 143.361 70.5264C153.416 76.1126 165.706 70.5264 165.706 57.6784C165.705 57.3672 165.675 57.0568 165.616 56.7511C166.757 55.6266 167.561 54.2069 167.94 52.6509V52.6509Z" stroke="white" stroke-width="2.23445" stroke-linecap="round" stroke-linejoin="round"/>
</g>
<rect width="49.1578" height="49.1578" transform="translate(3.70776 30.8647)" fill="black"/>
<g clip-path="url(#clip1_1737_31888)">
<path d="M40.576 45.3887C39.5061 46.1433 38.3215 46.7205 37.0679 47.098C36.395 46.3244 35.5008 45.776 34.5061 45.5271C33.5115 45.2782 32.4644 45.3409 31.5064 45.7065C30.5485 46.0721 29.726 46.7231 29.1501 47.5714C28.5742 48.4197 28.2728 49.4245 28.2865 50.4497V51.5669C26.3232 51.6178 24.3777 51.1824 22.6233 50.2994C20.869 49.4164 19.3603 48.1132 18.2315 46.5059C18.2315 46.5059 13.7626 56.5609 23.8176 61.0298C21.5167 62.5916 18.7758 63.3748 15.9971 63.2642C26.0521 68.8504 38.3415 63.2642 38.3415 50.4162C38.3405 50.105 38.3106 49.7945 38.2521 49.4889C39.3924 48.3644 40.197 46.9446 40.576 45.3887V45.3887Z" stroke="white" stroke-width="2.23445" stroke-linecap="round" stroke-linejoin="round"/>
</g>
<rect width="49.1578" height="49.1578" transform="translate(106.493 109.07)" fill="black"/>
<g clip-path="url(#clip2_1737_31888)">
<path d="M143.361 123.594C142.291 124.349 141.106 124.926 139.853 125.304C139.18 124.53 138.286 123.982 137.291 123.733C136.296 123.484 135.249 123.546 134.291 123.912C133.333 124.278 132.511 124.929 131.935 125.777C131.359 126.625 131.058 127.63 131.071 128.655V129.772C129.108 129.823 127.163 129.388 125.408 128.505C123.654 127.622 122.145 126.319 121.016 124.711C121.016 124.711 116.548 134.766 126.603 139.235C124.302 140.797 121.561 141.58 118.782 141.47C128.837 147.056 141.126 141.47 141.126 128.622C141.125 128.311 141.095 128 141.037 127.694C142.177 126.57 142.982 125.15 143.361 123.594V123.594Z" stroke="white" stroke-width="2.23445" stroke-linecap="round" stroke-linejoin="round"/>
</g>
<g opacity="0.1">
<rect width="20.11" height="20.11" transform="translate(81.9136 49.8574)" fill="black"/>
</g>
<g opacity="0.5">
<rect width="20.11" height="20.11" transform="translate(0.356445 124.711)" fill="black"/>
</g>
<g opacity="0.5">
<rect width="20.11" height="20.11" transform="translate(115.431 0.699707)" fill="black"/>
</g>
<g opacity="0.1">
<rect width="20.11" height="20.11" transform="translate(61.8035 158.228)" fill="black"/>
</g>
<g opacity="0.1">
<rect width="20.11" height="20.11" transform="translate(183.581 138.118)" fill="black"/>
</g>
<g opacity="0.5">
<rect width="20.11" height="20.11" transform="translate(56.2178 103.484)" fill="black"/>
</g>
<defs>
<clipPath id="clip0_1737_31888">
<rect width="26.8133" height="26.8133" fill="white" transform="translate(142.244 49.2991)"/>
</clipPath>
<clipPath id="clip1_1737_31888">
<rect width="26.8133" height="26.8133" fill="white" transform="translate(14.8799 42.0369)"/>
</clipPath>
<clipPath id="clip2_1737_31888">
<rect width="26.8133" height="26.8133" fill="white" transform="translate(117.665 120.242)"/>
</clipPath>
</defs>
</svg>
