<svg width="184" height="52" viewBox="0 0 184 52" fill="none" xmlns="http://www.w3.org/2000/svg">
<path d="M51.4666 2.29248H1.96924V51.6723H51.4666V2.29248Z" fill="black"/>
<path d="M49.4974 0.327881H0V49.7077H49.4974V0.327881Z" fill="#DB1111"/>
<path d="M36.4018 40.2286C34.2454 40.2089 31.6952 38.932 29.3813 36.7414C27.2447 34.6983 25.6496 32.2131 25.1277 30.0913C24.6453 28.1268 25.1376 26.6435 26.5161 25.897C28.6232 24.7673 30.6614 26.6042 32.6405 28.3723C34.147 29.7279 35.7027 31.1228 37.1205 30.9951C37.8295 30.9263 38.4793 30.4941 39.1193 29.669C39.2375 29.5216 39.4541 29.4921 39.6018 29.61C39.7495 29.7279 39.779 29.944 39.6609 30.0913C38.9027 31.0835 38.0855 31.5942 37.1796 31.6827C35.4664 31.8398 33.7925 30.3369 32.1678 28.8831C30.2872 27.1936 28.5149 25.6023 26.8311 26.4962C25.4527 27.2329 25.5019 28.7653 25.7874 29.9145C26.8213 34.0794 32.1481 39.4919 36.4018 39.5311C36.5888 39.5311 36.7464 39.6883 36.7464 39.875C36.7464 40.0812 36.5888 40.2286 36.4018 40.2286Z" fill="white"/>
<path d="M13.1546 11.6832C13.0758 11.6832 12.9971 11.6537 12.938 11.6046C12.7903 11.4867 12.7706 11.2706 12.8888 11.1233C14.0999 9.64984 15.8525 8.51039 18.0975 7.73437C18.1073 7.73437 18.1073 7.73438 18.1171 7.72455C19.9879 7.19412 21.8292 7.04677 23.572 7.2727C23.7591 7.29234 23.8969 7.46916 23.8674 7.65579C23.8477 7.84243 23.6705 7.97995 23.4834 7.95048C21.8292 7.73437 20.0963 7.88172 18.3141 8.38269C16.1971 9.11941 14.5528 10.1803 13.4303 11.5555C13.3515 11.6439 13.2531 11.6832 13.1546 11.6832Z" fill="white"/>
<path d="M34.5506 41.4564C34.5408 41.4564 34.5211 41.4564 34.5112 41.4564C32.3648 41.2206 29.8441 40.0812 27.7567 38.4015C26.0533 37.0263 23.8575 34.6884 23.0698 31.329C22.5381 29.0697 23.2963 24.9735 25.6693 23.9421C28.4853 22.7143 30.9272 24.8066 33.0835 26.6434C34.5014 27.8615 35.8405 29.0009 36.9236 28.8045C37.5045 28.6964 38.0264 28.1856 38.5285 27.2623C38.6172 27.0953 38.8239 27.0265 38.9913 27.1149C39.1587 27.2033 39.2276 27.4096 39.139 27.5766C38.5384 28.7063 37.859 29.3251 37.0614 29.4724C35.6633 29.7377 34.1962 28.4902 32.6503 27.1641C30.6515 25.4549 28.3868 23.5099 25.9647 24.5708C24.0151 25.4254 23.2865 29.1581 23.7591 31.1718C25.0883 36.8102 30.9075 40.3759 34.6097 40.7786C34.7968 40.7983 34.9346 40.9653 34.9149 41.1617C34.8756 41.3287 34.7279 41.4564 34.5506 41.4564Z" fill="white"/>
<path d="M32.3349 42.3897C32.3153 42.3897 32.2857 42.3897 32.266 42.3799C28.0912 41.5351 22.6265 38.0873 20.9822 31.1425C20.608 29.5807 20.736 27.6063 21.3268 25.8676C21.9865 23.903 23.1188 22.4885 24.5268 21.8697C27.9533 20.3668 30.7398 22.7144 32.975 24.6004C34.3731 25.7792 35.5842 26.8008 36.5689 26.6338C37.0612 26.5552 37.5141 26.1721 37.9375 25.455C38.036 25.288 38.2427 25.2389 38.4101 25.3372C38.5775 25.4354 38.6267 25.6417 38.5283 25.8087C37.9867 26.7025 37.3861 27.1937 36.6772 27.3116C35.3775 27.5277 34.0482 26.4079 32.522 25.1211C30.3165 23.2645 27.8253 21.1624 24.7927 22.4885C23.5619 23.0288 22.5576 24.2959 21.9668 26.0739C21.4253 27.6947 21.2972 29.5315 21.6419 30.9755C23.2173 37.606 28.4161 40.8966 32.394 41.7021C32.5811 41.7414 32.6993 41.9182 32.6599 42.1049C32.6402 42.2817 32.4925 42.3897 32.3349 42.3897Z" fill="white"/>
<path d="M37.7606 38.6568C35.4664 38.6568 32.9261 36.6726 31.5968 35.4742C29.5783 33.6472 27.8848 31.4173 27.294 29.7966C27.1069 29.2858 27.3235 28.7553 27.8355 28.4606C28.3672 28.166 29.1648 28.1856 29.6669 28.8044C32.0399 31.712 34.2159 33.2149 36.1261 33.2641C37.288 33.2935 38.3711 32.7729 39.3459 31.7022C39.4739 31.5647 39.6905 31.5549 39.8283 31.6826C39.9662 31.8103 39.976 32.0264 39.848 32.1639C38.7354 33.3819 37.4751 33.9811 36.1064 33.9418C33.9895 33.8829 31.6362 32.3014 29.1254 29.2268C28.8497 28.8929 28.4361 28.9027 28.1703 29.05C28.062 29.109 27.8355 29.2759 27.934 29.551C29.0565 32.6157 34.3932 37.9594 37.7606 37.9594C37.7901 37.9594 37.8295 37.9594 37.8591 37.9594C38.056 37.9594 38.2037 38.1068 38.2135 38.2934C38.2234 38.48 38.0658 38.6372 37.8788 38.647C37.8492 38.6568 37.8098 38.6568 37.7606 38.6568Z" fill="white"/>
<path d="M29.0855 42.871C29.0461 42.871 29.0068 42.8612 28.9575 42.8513C24.0147 40.9555 20.4799 37.1541 18.9931 32.1542C18.3432 29.9735 18.4811 27.2722 19.3771 24.9245C20.3519 22.3706 22.0454 20.5337 24.1624 19.7577C28.1698 18.2842 31.0548 20.8087 33.152 22.6456C34.3434 23.6868 35.3675 24.5807 36.2044 24.4923C36.5884 24.453 36.9429 24.2075 37.3072 23.736C37.4253 23.5886 37.642 23.5591 37.7897 23.6672C37.9373 23.7851 37.9669 24.0012 37.8586 24.1485C37.3761 24.7772 36.8641 25.1112 36.2832 25.1701C35.141 25.288 34.0087 24.2959 32.6991 23.1564C30.6117 21.3392 28.0221 19.0701 24.3987 20.3962C20.2435 21.9285 18.4318 27.8616 19.6528 31.9479C21.0805 36.7415 24.4676 40.376 29.2037 42.1932C29.3809 42.262 29.4695 42.4584 29.4006 42.6352C29.3514 42.7826 29.2234 42.871 29.0855 42.871Z" fill="white"/>
<path d="M22.3216 40.8278C22.233 40.8278 22.1444 40.7885 22.0755 40.7197C19.289 37.8612 17.5462 35.0028 16.7388 31.9773C15.8723 28.7063 15.892 25.6514 16.8077 23.1269C17.812 20.3568 19.8502 18.4217 22.6958 17.5376C27.4811 16.0544 30.5531 18.1172 32.7882 19.6397C34.3833 20.7104 35.2498 21.2507 36.0375 20.6417C36.1852 20.5238 36.4018 20.5533 36.52 20.7104C36.6381 20.8578 36.6086 21.0739 36.4511 21.1918C35.2301 22.1249 33.9206 21.2409 32.3944 20.2095C30.2676 18.7753 27.3629 16.8107 22.8927 18.1958C16.6698 20.1309 16.0397 26.7417 17.3886 31.8103C18.1566 34.7277 19.8502 37.488 22.5481 40.258C22.6761 40.3956 22.6761 40.6117 22.5382 40.7394C22.4988 40.7983 22.4102 40.8278 22.3216 40.8278Z" fill="white"/>
<path d="M15.1827 31.2505C15.035 31.2505 14.8873 31.1523 14.8479 30.9951C14.139 28.3527 13.9519 22.7046 16.4726 18.8049C17.9298 16.5456 20.0862 15.1606 22.8628 14.6989C26.4469 14.1095 29.2727 15.7303 31.5374 17.0367C32.8076 17.7636 33.9005 18.3923 34.8359 18.4807C35.023 18.5004 35.1608 18.6673 35.151 18.854C35.1313 19.0406 34.9639 19.1781 34.7768 19.1683C33.6937 19.0603 32.5319 18.4021 31.2026 17.6359C29.0266 16.3884 26.3189 14.8266 22.981 15.3865C20.3914 15.8187 18.4024 17.0957 17.0535 19.188C14.5722 23.0385 14.9464 28.6965 15.5175 30.8281C15.5667 31.0147 15.4584 31.2014 15.2713 31.2505C15.2418 31.2505 15.2122 31.2505 15.1827 31.2505Z" fill="white"/>
<path d="M12.6425 27.1837C12.485 27.1837 12.3472 27.0757 12.3078 26.9185C11.8253 24.895 11.9139 20.4059 14.1687 16.9286C15.8032 14.4041 18.2648 12.8226 21.4747 12.2136C25.1277 11.5162 27.8846 12.803 30.1 13.8442C31.3308 14.4237 32.3942 14.9149 33.3395 14.9542C33.5266 14.964 33.6743 15.1212 33.6743 15.3078C33.6644 15.4944 33.5069 15.6418 33.3198 15.6418C32.2367 15.6025 31.1142 15.0721 29.8145 14.4729C27.6877 13.4807 25.0489 12.2431 21.6125 12.9012C18.5897 13.4709 16.2857 14.964 14.7595 17.3215C12.6229 20.6122 12.5441 24.8753 12.997 26.781C13.0364 26.9676 12.9281 27.1542 12.741 27.1935C12.6918 27.1837 12.6721 27.1837 12.6425 27.1837Z" fill="white"/>
<path d="M9.90517 20.6908C9.89533 20.6908 9.87564 20.6908 9.86579 20.6908C9.67871 20.6711 9.54086 20.4943 9.5704 20.3077C9.8264 18.1957 10.6338 16.2704 11.9532 14.5809C13.184 13.0092 14.8579 11.7028 16.7877 10.8187C19.0327 9.78733 21.5632 9.33548 24.1035 9.51229C26.8014 9.70875 29.4501 10.6223 31.7738 12.1546C31.9314 12.2627 31.9707 12.469 31.8723 12.636C31.764 12.7931 31.5572 12.8324 31.3898 12.7342C26.9984 9.82662 21.6518 9.3453 17.0831 11.4474C13.2332 13.2155 10.7421 16.4767 10.2596 20.3862C10.2301 20.5631 10.0726 20.6908 9.90517 20.6908Z" fill="white"/>
<path d="M38.3216 36.1325C34.836 36.1325 30.1984 32.8811 29.3221 31.0737C29.2433 30.9067 29.3122 30.7004 29.4796 30.612C29.647 30.5334 29.8538 30.6022 29.9424 30.7692C30.7399 32.3998 35.7911 36.0048 39.1093 35.3663C39.2964 35.327 39.4736 35.4547 39.513 35.6413C39.5524 35.828 39.4244 36.0048 39.2373 36.0441C38.9419 36.103 38.6367 36.1325 38.3216 36.1325Z" fill="white"/>
<path d="M82.8567 2.27295V6.34946H77.8351V19.4925H72.6953V6.34946H67.6934V2.27295H82.8567Z" fill="black"/>
<path d="M95.3123 19.4925L93.028 14.8561H90.3203V19.4925H85.2002V2.27295H93.2446C97.8724 2.27295 100.531 4.4831 100.531 8.3828C100.531 10.9368 99.497 12.8031 97.6262 13.864L101.122 19.4827L95.3123 19.4925ZM90.3203 10.9171H93.2446C94.7708 10.9171 95.657 10.0822 95.657 8.53997C95.657 7.04688 94.7708 6.20211 93.2446 6.20211H90.3203V10.9171Z" fill="black"/>
<path d="M121.602 10.8482C121.602 16.0053 117.614 19.8362 112.199 19.8362C106.783 19.8362 102.795 16.0249 102.795 10.8482C102.795 5.72067 106.783 1.9585 112.199 1.9585C117.614 1.9585 121.602 5.74032 121.602 10.8482ZM108.043 10.8679C108.043 13.5397 110.013 15.5829 112.277 15.5829C114.542 15.5829 116.364 13.5397 116.364 10.8679C116.364 8.19605 114.542 6.20199 112.277 6.20199C109.983 6.20199 108.043 8.19605 108.043 10.8679Z" fill="black"/>
<path d="M129.38 2.27295V15.2195H136.617V19.4925H124.26V2.27295H129.38Z" fill="black"/>
<path d="M144.248 2.27295V15.2195H151.486V19.4925H139.128V2.27295H144.248Z" fill="black"/>
<path d="M81.2617 31.7612V33.9223H75.6985V48.9513H73.3354V33.9223H67.8018V31.7612H81.2617V31.7612Z" fill="black"/>
<path d="M95.0956 48.9513L91.6789 43.5487C91.3835 43.5684 91.0684 43.5978 90.714 43.5978H86.3324V48.9513H83.9692V31.7612H90.714C95.066 31.7612 97.5572 33.8732 97.5572 37.5567C97.5572 40.3563 96.2279 42.2914 93.7959 43.1362L97.8132 48.9513H95.0956ZM90.714 41.4663C93.6383 41.4663 95.2925 40.1893 95.2925 37.6353C95.2925 35.16 93.6383 33.9026 90.714 33.9026H86.3324V41.4663H90.714Z" fill="black"/>
<path d="M112.74 44.7766H103.662L101.87 48.9513H99.3887L107.049 31.7612H109.511L117.142 48.9513H114.582L112.74 44.7766ZM111.834 42.645L108.191 34.2955L104.597 42.645H111.834Z" fill="black"/>
<path d="M126.722 33.7061C123.03 33.7061 120.076 36.6333 120.076 40.307C120.076 43.9612 123.03 46.908 126.722 46.908C128.543 46.908 130.365 46.1222 131.694 44.8452L133.122 46.3972C131.399 48.0671 129.006 49.128 126.604 49.128C121.602 49.128 117.693 45.248 117.693 40.3365C117.693 35.4447 121.651 31.6138 126.702 31.6138C129.085 31.6138 131.448 32.5764 133.102 34.1874L131.704 35.8769C130.395 34.541 128.573 33.7061 126.722 33.7061Z" fill="black"/>
<path d="M148.019 48.9513L141.964 41.0144L138.793 44.4524V48.9513H136.43V31.7612H138.793V41.4073L147.606 31.7612H150.441L143.628 39.1775L150.894 48.9513H148.019Z" fill="black"/>
<path d="M165.792 31.7612V33.9026H156.192V39.207H164.778V41.3484H156.192V46.8296H166.087V48.971H153.829V31.7809H165.792V31.7612Z" fill="black"/>
<path d="M181.024 48.9513L177.598 43.5487C177.302 43.5684 176.987 43.5978 176.633 43.5978H172.251V48.9513H169.888V31.7612H176.633C180.985 31.7612 183.476 33.8732 183.476 37.5567C183.476 40.3563 182.147 42.2914 179.715 43.1362L183.732 48.9513H181.024ZM176.643 41.4663C179.577 41.4663 181.221 40.1893 181.221 37.6353C181.221 35.16 179.567 33.9026 176.643 33.9026H172.261V41.4663H176.643Z" fill="black"/>
</svg>
