<svg width="25" height="25" viewBox="0 0 25 25" fill="none" xmlns="http://www.w3.org/2000/svg">
<g clip-path="url(#clip0_2479_579)">
<path d="M23.5 3.49998C22.5424 4.17546 21.4821 4.69209 20.36 5.02999C19.7577 4.3375 18.9573 3.84668 18.067 3.62391C17.1767 3.40115 16.2395 3.45718 15.3821 3.78444C14.5247 4.1117 13.7884 4.69439 13.273 5.4537C12.7575 6.21302 12.4877 7.11232 12.5 8.02998V9.02998C10.7426 9.07555 9.00127 8.6858 7.43101 7.89543C5.86074 7.10506 4.51032 5.93862 3.5 4.49998C3.5 4.49998 -0.5 13.5 8.5 17.5C6.44053 18.898 3.98716 19.5989 1.5 19.5C10.5 24.5 21.5 19.5 21.5 7.99998C21.4991 7.72144 21.4723 7.44358 21.42 7.16999C22.4406 6.16348 23.1608 4.8927 23.5 3.49998V3.49998Z" stroke="white" stroke-width="2" stroke-linecap="round" stroke-linejoin="round"/>
</g>
<defs>
<clipPath id="clip0_2479_579">
<rect width="24" height="24" fill="white" transform="translate(0.5 0.5)"/>
</clipPath>
</defs>
</svg>
