<svg width="69" height="69" viewBox="0 0 69 69" fill="none" xmlns="http://www.w3.org/2000/svg">
<path d="M46.6274 47.4387V44.4387C46.6274 42.8474 45.9953 41.3213 44.8701 40.1961C43.7449 39.0709 42.2187 38.4387 40.6274 38.4387H28.6274C27.0361 38.4387 25.51 39.0709 24.3848 40.1961C23.2596 41.3213 22.6274 42.8474 22.6274 44.4387V47.4387" stroke="black" stroke-width="2" stroke-linecap="round" stroke-linejoin="round"/>
<path d="M34.6274 32.4387C37.9411 32.4387 40.6274 29.7524 40.6274 26.4387C40.6274 23.125 37.9411 20.4387 34.6274 20.4387C31.3137 20.4387 28.6274 23.125 28.6274 26.4387C28.6274 29.7524 31.3137 32.4387 34.6274 32.4387Z" stroke="black" stroke-width="2" stroke-linecap="round" stroke-linejoin="round"/>
<path d="M34.6274 58.9387C47.8823 58.9387 58.6274 48.1936 58.6274 34.9387C58.6274 21.6839 47.8823 10.9387 34.6274 10.9387C21.3726 10.9387 10.6274 21.6839 10.6274 34.9387C10.6274 48.1936 21.3726 58.9387 34.6274 58.9387Z" stroke="black" stroke-width="2" stroke-linecap="round" stroke-linejoin="round"/>
</svg>
