<svg width="59" height="60" viewBox="0 0 59 60" fill="none" xmlns="http://www.w3.org/2000/svg">
<path d="M13.57 47.4599L14.5022 40.7843C15.092 36.5614 18.7037 33.419 22.9675 33.419H36.0611C40.0481 33.419 43.5055 36.1755 44.3937 40.0623L46.1233 47.6309C41.8627 51.544 36.1797 53.9328 29.9387 53.9328C23.6074 53.9328 17.8503 51.4743 13.57 47.4599Z" fill="black"/>
<path d="M29.9387 31.7095C35.6035 31.7095 40.1957 27.1173 40.1957 21.4526C40.1957 15.7878 35.6035 11.1956 29.9387 11.1956C24.274 11.1956 19.6818 15.7878 19.6818 21.4526C19.6818 27.1173 24.274 31.7095 29.9387 31.7095Z" fill="black"/>
<path fill-rule="evenodd" clip-rule="evenodd" d="M29.9387 59.0613C45.9888 59.0613 59 46.0501 59 30C59 13.9499 45.9888 0.938721 29.9387 0.938721C13.8886 0.938721 0.877441 13.9499 0.877441 30C0.877441 46.0501 13.8886 59.0613 29.9387 59.0613ZM13.2852 49.4991C7.78373 44.796 4.29642 37.8052 4.29642 30C4.29642 15.8381 15.7769 4.3577 29.9387 4.3577C44.1006 4.3577 55.581 15.8381 55.581 30C55.581 37.8219 52.0789 44.8258 46.557 49.5291C42.0813 53.3414 36.2787 55.6423 29.9387 55.6423C23.5821 55.6423 17.7657 53.3293 13.2852 49.4991Z" fill="black"/>
</svg>
