<svg width="25" height="24" viewBox="0 0 25 24" fill="none" xmlns="http://www.w3.org/2000/svg">
<path d="M12.5 22C18.0228 22 22.5 17.5228 22.5 12C22.5 6.47715 18.0228 2 12.5 2C6.97715 2 2.5 6.47715 2.5 12C2.5 17.5228 6.97715 22 12.5 22Z" stroke="white" stroke-width="2" stroke-linecap="round" stroke-linejoin="round"/>
<path d="M9.58997 8.99996C9.82507 8.33163 10.2891 7.76807 10.8999 7.40909C11.5107 7.05012 12.2289 6.9189 12.9271 7.03867C13.6254 7.15844 14.2588 7.52148 14.715 8.06349C15.1713 8.60549 15.421 9.29148 15.42 9.99996C15.42 12 12.42 13 12.42 13" stroke="white" stroke-width="2" stroke-linecap="round" stroke-linejoin="round"/>
<path d="M12.5 17H12.51" stroke="white" stroke-width="2" stroke-linecap="round" stroke-linejoin="round"/>
</svg>
