<svg width="25" height="25" viewBox="0 0 25 25" fill="none" xmlns="http://www.w3.org/2000/svg">
<path d="M17.5 2.5H7.5C4.73858 2.5 2.5 4.73858 2.5 7.5V17.5C2.5 20.2614 4.73858 22.5 7.5 22.5H17.5C20.2614 22.5 22.5 20.2614 22.5 17.5V7.5C22.5 4.73858 20.2614 2.5 17.5 2.5Z" stroke="white" stroke-width="2" stroke-linecap="round" stroke-linejoin="round"/>
<path d="M16.4997 11.8701C16.6231 12.7023 16.481 13.5523 16.0935 14.2991C15.706 15.0459 15.0929 15.6515 14.3413 16.0297C13.5898 16.408 12.7382 16.5397 11.9075 16.406C11.0768 16.2723 10.3095 15.8801 9.71455 15.2852C9.11962 14.6903 8.72744 13.9229 8.59377 13.0923C8.46011 12.2616 8.59177 11.41 8.97003 10.6584C9.34829 9.90691 9.95389 9.2938 10.7007 8.9063C11.4475 8.5188 12.2975 8.37665 13.1297 8.50006C13.9786 8.62594 14.7646 9.02152 15.3714 9.62836C15.9782 10.2352 16.3738 11.0211 16.4997 11.8701Z" stroke="white" stroke-width="2" stroke-linecap="round" stroke-linejoin="round"/>
<path d="M18 7H18.01" stroke="white" stroke-width="2" stroke-linecap="round" stroke-linejoin="round"/>
</svg>
