<svg width="34" height="26" viewBox="0 0 34 26" fill="none" xmlns="http://www.w3.org/2000/svg">
<path d="M20.0046 16.0035C19.6155 16.421 19.1463 16.7559 18.625 16.9882C18.1037 17.2205 17.5409 17.3454 16.9703 17.3555C16.3996 17.3655 15.8328 17.2606 15.3036 17.0468C14.7744 16.8331 14.2937 16.5149 13.8901 16.1113C13.4865 15.7078 13.1684 15.227 12.9546 14.6978C12.7409 14.1686 12.6359 13.6018 12.6459 13.0312C12.656 12.4605 12.7809 11.8977 13.0132 11.3764C13.2455 10.8551 13.5804 10.3859 13.998 9.99678M25.4163 21.4151C22.9946 23.261 20.0459 24.2837 17.0013 24.3335C7.08464 24.3335 1.41797 13.0001 1.41797 13.0001C3.18015 9.71614 5.62424 6.84698 8.5863 4.58512L25.4163 21.4151ZM14.0263 2.00678C15.0014 1.77853 15.9998 1.66443 17.0013 1.66678C26.918 1.66678 32.5846 13.0001 32.5846 13.0001C31.7247 14.6089 30.6991 16.1235 29.5246 17.5193L14.0263 2.00678Z" stroke="black" stroke-width="2" stroke-linecap="round" stroke-linejoin="round"/>
</svg>
