<?xml version="1.0" encoding="utf-8"?>
<svg viewBox="0 0 14 28" fill="none" xmlns="http://www.w3.org/2000/svg">
  <path d="M 7.268 1.008 C 7.268 0.732 7.044 0.508 6.768 0.508 C 6.492 0.508 6.268 0.732 6.268 1.008 L 7.268 1.008 Z M 6.768 27.008 L 6.356 27.292 C 6.451 27.429 6.609 27.51 6.776 27.508 C 6.943 27.505 7.098 27.419 7.188 27.278 L 6.768 27.008 Z M 12.985 18.278 C 13.134 18.046 13.067 17.737 12.835 17.587 C 12.603 17.438 12.294 17.505 12.144 17.737 L 12.985 18.278 Z M 0.976 17.724 C 0.819 17.497 0.508 17.439 0.281 17.596 C 0.053 17.753 -0.004 18.064 0.153 18.292 L 0.976 17.724 Z M 6.268 1.008 L 6.268 27.008 L 7.268 27.008 L 7.268 1.008 L 6.268 1.008 Z M 12.144 17.737 L 6.348 26.737 L 7.188 27.278 L 12.985 18.278 L 12.144 17.737 Z M 7.18 26.724 L 0.976 17.724 L 0.153 18.292 L 6.356 27.292 L 7.18 26.724 Z" fill="black" transform="matrix(-1, 0, 0, -1, 13.128682, 28.016035)"/>
</svg>