<svg width="14" height="28" viewBox="0 0 14 28" fill="none" xmlns="http://www.w3.org/2000/svg">
<path d="M7.70352 1C7.70352 0.723858 7.47966 0.5 7.20352 0.5C6.92738 0.5 6.70352 0.723858 6.70352 1H7.70352ZM7.20352 27L6.79184 27.2838C6.88673 27.4214 7.04416 27.5026 7.21135 27.4999C7.37853 27.4973 7.53334 27.4113 7.62388 27.2707L7.20352 27ZM13.4204 18.2707C13.5699 18.0386 13.5029 17.7292 13.2707 17.5796C13.0386 17.4301 12.7292 17.4971 12.5796 17.7293L13.4204 18.2707ZM1.41168 17.7162C1.25496 17.4889 0.943602 17.4316 0.716238 17.5883C0.488874 17.745 0.431604 18.0564 0.588321 18.2838L1.41168 17.7162ZM6.70352 1V27H7.70352V1H6.70352ZM12.5796 17.7293L6.78316 26.7293L7.62388 27.2707L13.4204 18.2707L12.5796 17.7293ZM7.6152 26.7162L1.41168 17.7162L0.588321 18.2838L6.79184 27.2838L7.6152 26.7162Z" fill="black"/>
</svg>
