<svg width="24" height="24" viewBox="0 0 24 24" fill="none" xmlns="http://www.w3.org/2000/svg">
<path d="M23 11.3334L23 11.336C23.0041 12.9383 22.6298 14.5189 21.9074 15.9492L21.9055 15.953C21.0477 17.6692 19.7291 19.1127 18.0973 20.1219C16.4655 21.131 14.5849 21.6659 12.6663 21.6667L12.664 21.6667C11.0617 21.6709 9.48107 21.2965 8.05084 20.5741C7.81285 20.4539 7.53671 20.4337 7.28376 20.518L1.58114 22.4189L3.48201 16.7162C3.56633 16.4633 3.54614 16.1872 3.42593 15.9492C2.70351 14.5189 2.32915 12.9383 2.33333 11.336L2.33333 11.3337C2.33407 9.4151 2.86898 7.53455 3.87812 5.90273C4.88727 4.27092 6.33081 2.95229 8.04705 2.09454L8.04705 2.09455L8.05084 2.09263C9.48107 1.37022 11.0617 0.995857 12.664 1.00004H12.6666H13.3051C15.8285 1.14586 18.2107 2.21391 19.9984 4.00162C21.7861 5.78933 22.8541 8.17152 23 10.6949L23 11.3334Z" stroke="black" stroke-width="2" stroke-linecap="round" stroke-linejoin="round"/>
</svg>
