<svg width="24" height="24" viewBox="0 0 24 24" fill="none" xmlns="http://www.w3.org/2000/svg">
<path d="M16.9997 14.4869V15.9923C17.0003 16.1321 16.9716 16.2704 16.9155 16.3985C16.8594 16.5265 16.7771 16.6414 16.6739 16.7359C16.5707 16.8304 16.4489 16.9023 16.3163 16.9471C16.1836 16.9919 16.0431 17.0085 15.9036 16.9959C14.3564 16.8281 12.8702 16.3005 11.5645 15.4554C10.3496 14.685 9.31963 13.657 8.54767 12.4446C7.69793 11.1355 7.16912 9.64504 7.00408 8.09397C6.99152 7.95521 7.00804 7.81536 7.0526 7.68331C7.09716 7.55127 7.16878 7.42994 7.2629 7.32703C7.35703 7.22413 7.47158 7.14191 7.59929 7.08562C7.72699 7.02932 7.86504 7.00018 8.00465 7.00005H9.51304C9.75705 6.99765 9.99361 7.08389 10.1786 7.24269C10.3636 7.40148 10.4845 7.622 10.5186 7.86315C10.5823 8.34491 10.7004 8.81794 10.8706 9.27321C10.9382 9.45281 10.9529 9.64801 10.9128 9.83567C10.8727 10.0233 10.7795 10.1956 10.6443 10.332L10.0058 10.9693C10.7215 12.2256 11.7638 13.2658 13.0226 13.9801L13.6611 13.3428C13.7978 13.2079 13.9704 13.1149 14.1584 13.0749C14.3465 13.0349 14.5421 13.0495 14.722 13.117C15.1782 13.2869 15.6522 13.4047 16.1349 13.4683C16.3791 13.5027 16.6022 13.6254 16.7616 13.8133C16.9211 14.0011 17.0058 14.2408 16.9997 14.4869Z" fill="black"/>
<path d="M23 11.3334L23 11.336C23.0041 12.9383 22.6298 14.5189 21.9074 15.9492L21.9055 15.953C21.0477 17.6692 19.7291 19.1127 18.0973 20.1219C16.4655 21.131 14.5849 21.6659 12.6663 21.6667L12.664 21.6667C11.0617 21.6709 9.48107 21.2965 8.05084 20.5741C7.81285 20.4539 7.53671 20.4337 7.28376 20.518L1.58114 22.4189L3.48201 16.7162C3.56633 16.4633 3.54614 16.1872 3.42593 15.9492C2.70351 14.5189 2.32915 12.9383 2.33333 11.336L2.33333 11.3337C2.33407 9.4151 2.86898 7.53455 3.87812 5.90273C4.88727 4.27092 6.33081 2.95229 8.04705 2.09454L8.04705 2.09455L8.05084 2.09263C9.48107 1.37022 11.0617 0.995857 12.664 1.00004H12.6666H13.3051C15.8285 1.14586 18.2107 2.21391 19.9984 4.00162C21.7861 5.78933 22.8541 8.17152 23 10.6949L23 11.3334Z" stroke="black" stroke-width="2" stroke-linecap="round" stroke-linejoin="round"/>
</svg>
